HIERARCHY
ROOT Hips
{
	OFFSET 0.000000 0.000000 0.000000
	CHANNELS 6 Xposition Yposition Zposition Zrotation Yrotation Xrotation 
	JOINT LowerBack
	{
		OFFSET 0.000000 0.000000 0.000000
		CHANNELS 3 Zrotation Yrotation Xrotation
		JOINT Spine
		{
			OFFSET 0.028270 2.035590 -0.193380
			CHANNELS 3 Zrotation Yrotation Xrotation
			JOINT Spine1
			{
				OFFSET 0.056720 2.048850 -0.042750
				CHANNELS 3 Zrotation Yrotation Xrotation
				JOINT Neck
				{
					OFFSET 0.000000 0.000000 0.000000
					CHANNELS 3 Zrotation Yrotation Xrotation
					JOINT Neck1
					{
						OFFSET -0.054170 1.746240 0.172020
						CHANNELS 3 Zrotation Yrotation Xrotation
						JOINT Head
						{
							OFFSET 0.104070 1.761360 -0.123970
							CHANNELS 3 Zrotation Yrotation Xrotation
							End Site
							{
								OFFSET 0.000000 0.000000 0.000000
							}
						}
					}
				}
				JOINT LeftShoulder
				{
					OFFSET 0.000000 0.000000 0.000000
					CHANNELS 3 Zrotation Yrotation Xrotation
					JOINT LeftArm
					{
						OFFSET 3.362410 1.200890 -0.311210
						CHANNELS 3 Zrotation Yrotation Xrotation
						JOINT LeftForeArm
						{
							OFFSET 4.983000 -0.000000 -0.000000
							CHANNELS 3 Zrotation Yrotation Xrotation
							JOINT LeftHand
							{
								OFFSET 3.483560 -0.000000 -0.000000
								CHANNELS 3 Zrotation Yrotation Xrotation
								JOINT LeftFingerBase
								{
									OFFSET 0.000000 0.000000 0.000000
									CHANNELS 3 Zrotation Yrotation Xrotation
									JOINT LeftHandIndex1
									{
										OFFSET 0.715260 -0.000000 -0.000000
										CHANNELS 3 Zrotation Yrotation Xrotation
										End Site
										{
											OFFSET 0.000000 0.000000 0.000000
										}
									}
								}
								JOINT LThumb
								{
									OFFSET 0.000000 0.000000 0.000000
									CHANNELS 3 Zrotation Yrotation Xrotation
									End Site
									{
										OFFSET 0.000000 0.000000 0.000000
									}
								}
							}
						}
					}
				}
				JOINT RightShoulder
				{
					OFFSET 0.000000 0.000000 0.000000
					CHANNELS 3 Zrotation Yrotation Xrotation
					JOINT RightArm
					{
						OFFSET -3.136600 1.374050 -0.404650
						CHANNELS 3 Zrotation Yrotation Xrotation
						JOINT RightForeArm
						{
							OFFSET -5.241900 -0.000000 -0.000000
							CHANNELS 3 Zrotation Yrotation Xrotation
							JOINT RightHand
							{
								OFFSET -3.444170 -0.000000 -0.000000
								CHANNELS 3 Zrotation Yrotation Xrotation
								JOINT RightFingerBase
								{
									OFFSET 0.000000 0.000000 0.000000
									CHANNELS 3 Zrotation Yrotation Xrotation
									JOINT RightHandIndex1
									{
										OFFSET -0.622530 -0.000000 -0.000000
										CHANNELS 3 Zrotation Yrotation Xrotation
										End Site
										{
											OFFSET 0.000000 0.000000 0.000000
										}
									}
								}
								JOINT RThumb
								{
									OFFSET 0.000000 0.000000 0.000000
									CHANNELS 3 Zrotation Yrotation Xrotation
									End Site
									{
										OFFSET 0.000000 0.000000 0.000000
									}
								}
							}
						}
					}
				}
			}
		}
	}
}
}
MOTION
Frames: 15
Frame Time: 0.008333
24.082038 16.117288 2.028559 108.949143 -86.061359 -84.911440 -6.852761 4.238460 -13.125764 -3.140535 4.674502 -5.415664 -7.700841 4.626388 1.955434 10.803299 -3.737181 -10.768720 -3.218464 -0.227046 -0.892732 0.000000 0.000000 0.000000 -2.835308 28.792742 1.510167 -30.910781 3.324150 -51.639027 -1.654288 -25.225600 -0.025735 29.166746 -3.333955 -0.879322 0.036354 0.048093 -0.000000 0.000000 0.000000 0.000000 0.000000 0.000000 0.000000 14.241809 5.428090 -0.212010 74.921405 22.311284 57.212415 0.793138 83.565905 0.035094 -5.336904 32.772329 -1.668497 0.188604 -0.966397 -0.000000 0.000000 0.000000 0.000000 0.000000 0.000000 0.000000 
23.835887 16.155181 2.025358 110.262572 -85.724092 -86.457702 -7.182802 4.218721 -13.040803 -3.204179 4.706467 -5.411442 -7.685189 4.656337 1.895658 10.823652 -3.739844 -10.776790 -3.226305 -0.227412 -0.896996 0.000000 0.000000 0.000000 -3.071082 28.839557 1.460211 -31.015133 2.600727 -51.829775 -1.613066 -26.356080 -0.025575 29.127819 -3.470034 -0.913608 0.031854 0.048264 -0.000000 0.000000 0.000000 0.000000 0.000000 0.000000 0.000000 14.420649 5.450454 -0.240958 75.066844 21.484074 57.084341 0.866797 81.757651 0.033887 -5.129368 32.306442 -1.577719 0.179514 -0.928976 -0.000000 0.000000 0.000000 0.000000 0.000000 0.000000 0.000000 
23.594379 16.193135 2.023581 111.550947 -85.381029 -88.031204 -7.474574 4.184282 -12.895381 -3.252940 4.714977 -5.391007 -7.658073 4.662943 1.849566 10.823587 -3.748062 -10.783230 -3.235386 -0.227727 -0.901058 0.000000 0.000000 0.000000 -3.321960 28.883037 1.411629 -31.263383 1.868860 -51.999862 -1.568769 -27.579244 -0.025348 29.122496 -3.602293 -0.947894 0.027654 0.048256 -0.000000 0.000000 0.000000 0.000000 0.000000 0.000000 0.000000 14.587529 5.448118 -0.266094 75.160730 20.734956 56.923127 0.934522 79.875200 0.032953 -4.894240 31.832402 -1.480452 0.170304 -0.890716 -0.000000 0.000000 0.000000 0.000000 0.000000 0.000000 0.000000 
23.357118 16.230992 2.022885 112.684701 -85.026043 -89.495868 -7.739979 4.131548 -12.698104 -3.289907 4.697218 -5.356659 -7.624226 4.643110 1.815595 10.811917 -3.763265 -10.784798 -3.246801 -0.228157 -0.903958 0.000000 0.000000 0.000000 -3.577820 28.898446 1.365572 -31.643055 1.163397 -52.128714 -1.522859 -28.896824 -0.025090 29.150027 -3.715436 -0.978280 0.023602 0.048168 -0.000000 0.000000 0.000000 0.000000 0.000000 0.000000 0.000000 14.751701 5.417055 -0.284347 75.181361 20.052690 56.707871 0.999277 77.923078 0.032687 -4.597999 31.475032 -1.372986 0.160445 -0.852976 -0.000000 0.000000 0.000000 0.000000 0.000000 0.000000 0.000000 
23.123750 16.268850 2.023925 113.674681 -84.683894 -90.843124 -7.955608 4.063022 -12.470803 -3.311650 4.652478 -5.310741 -7.589559 4.596049 1.800713 10.798462 -3.801273 -10.787648 -3.260656 -0.228731 -0.906999 0.000000 0.000000 0.000000 -3.845609 28.892667 1.317072 -32.135897 0.471392 -52.207826 -1.477403 -30.292808 -0.024757 29.204888 -3.815339 -1.006366 0.019573 0.047925 -0.000000 0.000000 0.000000 0.000000 0.000000 0.000000 0.000000 14.922981 5.338696 -0.292058 75.079714 19.438709 56.442081 1.063418 75.925135 0.033337 -4.247371 31.353907 -1.262008 0.150318 -0.816819 -0.000000 0.000000 0.000000 0.000000 0.000000 0.000000 0.000000 
22.893369 16.306940 2.026653 114.510800 -84.358425 -92.049173 -8.121781 3.979187 -12.229167 -3.318398 4.582995 -5.257562 -7.550159 4.524256 1.796538 10.773529 -3.873037 -10.784819 -3.272648 -0.229206 -0.907718 0.000000 0.000000 0.000000 -4.130447 28.843272 1.268383 -32.719628 -0.185666 -52.214586 -1.434458 -31.760832 -0.024378 29.278485 -3.894165 -1.029650 0.015073 0.047672 -0.000000 0.000000 0.000000 0.000000 0.000000 0.000000 0.000000 15.073241 5.204129 -0.297429 74.959188 18.875676 56.136994 1.125081 73.900172 0.034132 -3.876761 31.201858 -1.145320 0.140700 -0.780226 -0.000000 0.000000 0.000000 0.000000 0.000000 0.000000 0.000000 
22.665277 16.345519 2.030900 115.212064 -84.051372 -93.115964 -8.243728 3.880184 -11.990980 -3.313049 4.490129 -5.200988 -7.511734 4.428966 1.802850 10.748998 -3.974112 -10.776361 -3.284488 -0.229782 -0.906148 0.000000 0.000000 0.000000 -4.425578 28.748928 1.218039 -33.374356 -0.814426 -52.133374 -1.395060 -33.288630 -0.023949 29.364660 -3.952911 -1.048332 0.010046 0.047413 -0.000000 0.000000 0.000000 0.000000 0.000000 0.000000 0.000000 15.216268 5.019007 -0.299467 74.777758 18.335326 55.752790 1.186993 71.868159 0.035272 -3.472889 31.145837 -1.023714 0.131274 -0.744441 -0.000000 0.000000 0.000000 0.000000 0.000000 0.000000 0.000000 
22.438824 16.384925 2.036767 115.848425 -83.770026 -94.094176 -8.317016 3.768772 -11.775254 -3.295857 4.377149 -5.145257 -7.475483 4.313426 1.817690 10.727738 -4.109050 -10.762210 -3.295732 -0.230485 -0.902049 0.000000 0.000000 0.000000 -4.732316 28.601817 1.165610 -34.081845 -1.409300 -51.942580 -1.360596 -34.870798 -0.023437 29.453001 -3.992504 -1.062110 0.004276 0.047125 -0.000000 0.000000 0.000000 0.000000 0.000000 0.000000 0.000000 15.351508 4.781824 -0.298757 74.536879 17.802153 55.274144 1.249840 69.850637 0.036611 -3.055133 31.164104 -0.901288 0.122412 -0.709422 -0.000000 0.000000 0.000000 0.000000 0.000000 0.000000 0.000000 
22.213606 16.425420 2.044106 116.479086 -83.516155 -95.030783 -8.342957 3.648010 -11.595257 -3.268097 4.248143 -5.093980 -7.441912 4.181730 1.837640 10.711604 -4.276243 -10.741377 -3.306133 -0.231339 -0.895086 0.000000 0.000000 0.000000 -5.047789 28.396876 1.111422 -34.827425 -1.972149 -51.622987 -1.331509 -36.499724 -0.022844 29.536082 -4.013617 -1.070885 -0.002362 0.046834 -0.000000 0.000000 0.000000 0.000000 0.000000 0.000000 0.000000 15.477027 4.498137 -0.296851 74.239229 17.256085 54.674373 1.313919 67.870394 0.037987 -2.639156 31.229894 -0.781037 0.114298 -0.675140 -0.000000 0.000000 0.000000 0.000000 0.000000 0.000000 0.000000 
21.989205 16.467147 2.052686 117.158866 -83.287036 -95.968651 -8.327356 3.520651 -11.459415 -3.231728 4.107168 -5.049817 -7.410790 4.037977 1.859633 10.701423 -4.466747 -10.712801 -3.315629 -0.232359 -0.885085 0.000000 0.000000 0.000000 -5.365779 28.139852 1.055899 -35.600338 -2.520384 -51.161079 -1.307671 -38.161600 -0.022194 29.608200 -4.025492 -1.076955 -0.009967 0.046604 -0.000000 0.000000 0.000000 0.000000 0.000000 0.000000 0.000000 15.589971 4.180722 -0.296287 73.888798 16.674932 53.918750 1.379166 65.949358 0.039238 -2.237375 31.315613 -0.665166 0.106959 -0.641583 -0.000000 0.000000 0.000000 0.000000 0.000000 0.000000 0.000000 
21.765742 16.510158 2.062418 117.942200 -83.083753 -96.957553 -8.268948 3.390340 -11.371178 -3.186710 3.957960 -5.014583 -7.380749 3.885836 1.880368 10.696063 -4.683430 -10.676473 -3.324009 -0.233542 -0.872032 0.000000 0.000000 0.000000 -5.682209 27.814171 1.000968 -36.395917 -3.032079 -50.535277 -1.288445 -39.863687 -0.021493 29.664164 -4.022995 -1.078618 -0.018632 0.046463 -0.000000 0.000000 0.000000 0.000000 0.000000 0.000000 0.000000 15.688082 3.830341 -0.295357 73.485144 16.058041 52.995968 1.445729 64.103460 0.040310 -1.880334 31.397804 -0.562071 0.100829 -0.608725 -0.000000 0.000000 0.000000 0.000000 0.000000 0.000000 0.000000 
21.543063 16.554337 2.073026 118.850002 -82.901906 -98.019826 -8.173973 3.259347 -11.326579 -3.134595 3.803587 -4.988201 -7.350991 3.728522 1.897806 10.694448 -4.914487 -10.632271 -3.331265 -0.234849 -0.856187 0.000000 0.000000 0.000000 -5.987529 27.434621 0.947075 -37.211408 -3.537984 -49.740414 -1.272531 -41.589329 -0.020824 29.703842 -4.018856 -1.079376 -0.028381 0.046587 -0.000000 0.000000 0.000000 0.000000 0.000000 0.000000 0.000000 15.767752 3.461510 -0.296419 73.033812 15.393276 51.873771 1.513294 62.349298 0.041107 -1.577116 31.458297 -0.474152 0.095784 -0.576625 0.000000 0.000000 0.000000 0.000000 0.000000 0.000000 0.000000 
21.321431 16.599402 2.084368 119.895594 -82.740029 -99.173515 -8.043043 3.129205 -11.317905 -3.075106 3.645529 -4.970767 -7.319649 3.567376 1.906538 10.692741 -5.157101 -10.577502 -3.337884 -0.236340 -0.836900 0.000000 0.000000 0.000000 -6.273335 26.972534 0.898094 -38.048543 -3.990698 -48.759964 -1.257934 -43.359933 -0.020226 29.727714 -4.000912 -1.075925 -0.039237 0.047033 -0.000000 0.000000 0.000000 0.000000 0.000000 0.000000 0.000000 15.825443 3.079352 -0.296450 72.537448 14.684428 50.543608 1.582154 60.695206 0.041653 -1.352070 31.488736 -0.408515 0.092086 -0.545344 0.000000 0.000000 0.000000 0.000000 0.000000 0.000000 0.000000 
21.100801 16.644943 2.096269 121.062945 -82.596299 -100.411986 -7.880484 3.000235 -11.332766 -3.009403 3.484600 -4.958969 -7.286989 3.403678 1.909656 10.691070 -5.398535 -10.515708 -3.343323 -0.237834 -0.815584 0.000000 0.000000 0.000000 -6.532331 26.476335 0.851486 -38.905406 -4.472261 -47.603613 -1.243541 -45.138224 -0.019867 29.740857 -3.994997 -1.075468 -0.051211 0.048172 -0.000000 0.000000 0.000000 0.000000 0.000000 0.000000 0.000000 15.859227 2.696475 -0.299433 72.004426 13.928753 48.976721 1.651816 59.153109 0.041910 -1.200740 31.486289 -0.363860 0.089374 -0.514998 0.000000 0.000000 0.000000 0.000000 0.000000 0.000000 0.000000 
20.881671 16.690426 2.108756 122.335991 -82.473939 -101.728487 -7.682422 2.871802 -11.359085 -2.936308 3.319764 -4.950868 -7.252035 3.236466 1.905382 10.685992 -5.639146 -10.446539 -3.347808 -0.239319 -0.792231 0.000000 0.000000 0.000000 -6.758839 25.932838 0.809179 -39.784523 -4.956171 -46.265608 -1.227516 -46.939206 -0.019840 29.745838 -3.993632 -1.076202 -0.064333 0.050186 -0.000000 0.000000 0.000000 0.000000 0.000000 0.000000 0.000000 15.867356 2.312169 -0.302495 71.440121 13.141081 47.176921 1.722635 57.724100 0.041958 -1.137217 31.457479 -0.344592 0.087785 -0.485667 0.000000 0.000000 0.000000 0.000000 0.000000 0.000000 0.000000 
